<?xml version="1.0" encoding="UTF-8" standalone="no"?>
<!DOCTYPE svg PUBLIC "-//W3C//DTD SVG 1.1//EN"
 "http://www.w3.org/Graphics/SVG/1.1/DTD/svg11.dtd">
<!-- Generated by graphviz version 2.47.0 (20210316.0004)
 -->
<!-- Title: dependencies Pages: 1 -->
<svg width="1019pt" height="284pt"
 viewBox="0.00 0.00 1019.00 284.00" xmlns="http://www.w3.org/2000/svg" xmlns:xlink="http://www.w3.org/1999/xlink">
<g id="graph0" class="graph" transform="scale(1 1) rotate(0) translate(4 280)">
<title>dependencies</title>
<polygon fill="white" stroke="transparent" points="-4,4 -4,-280 1015,-280 1015,4 -4,4"/>
<text text-anchor="start" x="484.51" y="-42.4" font-family="Times-12" font-weight="bold" font-size="14.00">Legend</text>
<polygon fill="#ffffb3" stroke="transparent" points="271.5,-10 271.5,-30 291.5,-30 291.5,-10 271.5,-10"/>
<text text-anchor="start" x="295.13" y="-15.4" font-family="Times-12" font-size="14.00"> &#160;Declarations</text>
<polygon fill="#8dd3c7" stroke="transparent" points="384.5,-10 384.5,-30 404.5,-30 404.5,-10 384.5,-10"/>
<text text-anchor="start" x="408.23" y="-15.4" font-family="Times-12" font-size="14.00"> &#160;Module</text>
<polygon fill="#80b1d3" stroke="transparent" points="470.5,-10 470.5,-30 490.5,-30 490.5,-10 470.5,-10"/>
<text text-anchor="start" x="494.28" y="-15.4" font-family="Times-12" font-size="14.00"> &#160;Bootstrap</text>
<polygon fill="#fdb462" stroke="transparent" points="567.5,-10 567.5,-30 587.5,-30 587.5,-10 567.5,-10"/>
<text text-anchor="start" x="591.17" y="-15.4" font-family="Times-12" font-size="14.00"> &#160;Providers</text>
<polygon fill="#fb8072" stroke="transparent" points="663.5,-10 663.5,-30 683.5,-30 683.5,-10 663.5,-10"/>
<text text-anchor="start" x="687.23" y="-15.4" font-family="Times-12" font-size="14.00"> &#160;Exports</text>
<g id="clust1" class="cluster">
<title>cluster_AppModule</title>
<polygon fill="none" stroke="black" stroke-dasharray="1,5" points="8,-70 8,-268 1003,-268 1003,-70 8,-70"/>
</g>
<g id="clust2" class="cluster">
<title>cluster_AppModule_declarations</title>
<polygon fill="none" stroke="black" points="285,-78 285,-130 995,-130 995,-78 285,-78"/>
</g>
<g id="clust10" class="cluster">
<title>cluster_AppModule_bootstrap</title>
<polygon fill="none" stroke="black" points="450,-208 450,-260 574,-260 574,-208 450,-208"/>
</g>
<g id="clust8" class="cluster">
<title>cluster_AppModule_imports</title>
<polygon fill="none" stroke="black" points="16,-78 16,-130 277,-130 277,-78 16,-78"/>
</g>
<!-- AppComponent -->
<g id="node1" class="node">
<title>AppComponent</title>
<polygon fill="#ffffb3" stroke="black" points="986.94,-122 881.06,-122 881.06,-86 986.94,-86 986.94,-122"/>
<text text-anchor="middle" x="934" y="-99.8" font-family="Times,serif" font-size="14.00">AppComponent</text>
</g>
<!-- AppModule -->
<g id="node6" class="node">
<title>AppModule</title>
<polygon fill="#8dd3c7" stroke="black" points="553.66,-187 550.66,-191 529.66,-191 526.66,-187 470.34,-187 470.34,-151 553.66,-151 553.66,-187"/>
<text text-anchor="middle" x="512" y="-164.8" font-family="Times,serif" font-size="14.00">AppModule</text>
</g>
<!-- AppComponent&#45;&gt;AppModule -->
<g id="edge1" class="edge">
<title>AppComponent&#45;&gt;AppModule</title>
<path fill="none" stroke="black" d="M934,-122.29C934,-144.21 934,-178 934,-178 934,-178 564.01,-178 564.01,-178"/>
<polygon fill="black" stroke="black" points="564.01,-174.5 554.01,-178 564.01,-181.5 564.01,-174.5"/>
</g>
<!-- BookDetailComponent -->
<g id="node2" class="node">
<title>BookDetailComponent</title>
<polygon fill="#ffffb3" stroke="black" points="862.88,-122 717.12,-122 717.12,-86 862.88,-86 862.88,-122"/>
<text text-anchor="middle" x="790" y="-99.8" font-family="Times,serif" font-size="14.00">BookDetailComponent</text>
</g>
<!-- BookDetailComponent&#45;&gt;AppModule -->
<g id="edge2" class="edge">
<title>BookDetailComponent&#45;&gt;AppModule</title>
<path fill="none" stroke="black" d="M790,-122.11C790,-141.34 790,-169 790,-169 790,-169 563.92,-169 563.92,-169"/>
<polygon fill="black" stroke="black" points="563.92,-165.5 553.92,-169 563.92,-172.5 563.92,-165.5"/>
</g>
<!-- BookFilterPipe -->
<g id="node3" class="node">
<title>BookFilterPipe</title>
<polygon fill="#ffffb3" stroke="black" points="698.55,-122 597.45,-122 597.45,-86 698.55,-86 698.55,-122"/>
<text text-anchor="middle" x="648" y="-99.8" font-family="Times,serif" font-size="14.00">BookFilterPipe</text>
</g>
<!-- BookFilterPipe&#45;&gt;AppModule -->
<g id="edge3" class="edge">
<title>BookFilterPipe&#45;&gt;AppModule</title>
<path fill="none" stroke="black" d="M648,-122.03C648,-138.4 648,-160 648,-160 648,-160 563.91,-160 563.91,-160"/>
<polygon fill="black" stroke="black" points="563.91,-156.5 553.91,-160 563.91,-163.5 563.91,-156.5"/>
</g>
<!-- BookListComponent -->
<g id="node4" class="node">
<title>BookListComponent</title>
<polygon fill="#ffffb3" stroke="black" points="578.95,-122 445.05,-122 445.05,-86 578.95,-86 578.95,-122"/>
<text text-anchor="middle" x="512" y="-99.8" font-family="Times,serif" font-size="14.00">BookListComponent</text>
</g>
<!-- BookListComponent&#45;&gt;AppModule -->
<g id="edge4" class="edge">
<title>BookListComponent&#45;&gt;AppModule</title>
<path fill="none" stroke="black" d="M512,-122.11C512,-122.11 512,-140.99 512,-140.99"/>
<polygon fill="black" stroke="black" points="508.5,-140.99 512,-150.99 515.5,-140.99 508.5,-140.99"/>
</g>
<!-- WelcomeComponent -->
<g id="node5" class="node">
<title>WelcomeComponent</title>
<polygon fill="#ffffb3" stroke="black" points="427.47,-122 292.53,-122 292.53,-86 427.47,-86 427.47,-122"/>
<text text-anchor="middle" x="360" y="-99.8" font-family="Times,serif" font-size="14.00">WelcomeComponent</text>
</g>
<!-- WelcomeComponent&#45;&gt;AppModule -->
<g id="edge5" class="edge">
<title>WelcomeComponent&#45;&gt;AppModule</title>
<path fill="none" stroke="black" d="M360,-122.03C360,-138.4 360,-160 360,-160 360,-160 460.06,-160 460.06,-160"/>
<polygon fill="black" stroke="black" points="460.06,-163.5 470.06,-160 460.06,-156.5 460.06,-163.5"/>
</g>
<!-- AppComponent  -->
<g id="node9" class="node">
<title>AppComponent </title>
<polygon fill="#80b1d3" stroke="black" points="566.44,-252 457.56,-252 457.56,-216 566.44,-216 566.44,-252"/>
<text text-anchor="middle" x="512" y="-229.8" font-family="Times,serif" font-size="14.00">AppComponent </text>
</g>
<!-- AppModule&#45;&gt;AppComponent  -->
<g id="edge8" class="edge">
<title>AppModule&#45;&gt;AppComponent </title>
<path fill="none" stroke="black" stroke-dasharray="1,5" d="M512,-187.11C512,-187.11 512,-205.99 512,-205.99"/>
<polygon fill="black" stroke="black" points="508.5,-205.99 512,-215.99 515.5,-205.99 508.5,-205.99"/>
</g>
<!-- AppRoutingModule -->
<g id="node7" class="node">
<title>AppRoutingModule</title>
<polygon fill="#8dd3c7" stroke="black" points="269.27,-122 266.27,-126 245.27,-126 242.27,-122 140.73,-122 140.73,-86 269.27,-86 269.27,-122"/>
<text text-anchor="middle" x="205" y="-99.8" font-family="Times,serif" font-size="14.00">AppRoutingModule</text>
</g>
<!-- AppRoutingModule&#45;&gt;AppModule -->
<g id="edge6" class="edge">
<title>AppRoutingModule&#45;&gt;AppModule</title>
<path fill="none" stroke="black" d="M205,-122.11C205,-141.34 205,-169 205,-169 205,-169 460.28,-169 460.28,-169"/>
<polygon fill="black" stroke="black" points="460.28,-172.5 470.28,-169 460.28,-165.5 460.28,-172.5"/>
</g>
<!-- SharedModule -->
<g id="node8" class="node">
<title>SharedModule</title>
<polygon fill="#8dd3c7" stroke="black" points="122.42,-122 119.42,-126 98.42,-126 95.42,-122 23.58,-122 23.58,-86 122.42,-86 122.42,-122"/>
<text text-anchor="middle" x="73" y="-99.8" font-family="Times,serif" font-size="14.00">SharedModule</text>
</g>
<!-- SharedModule&#45;&gt;AppModule -->
<g id="edge7" class="edge">
<title>SharedModule&#45;&gt;AppModule</title>
<path fill="none" stroke="black" d="M73,-122.29C73,-144.21 73,-178 73,-178 73,-178 460.3,-178 460.3,-178"/>
<polygon fill="black" stroke="black" points="460.3,-181.5 470.3,-178 460.3,-174.5 460.3,-181.5"/>
</g>
</g>
</svg>
