<?xml version="1.0" encoding="UTF-8" standalone="no"?>
<!DOCTYPE svg PUBLIC "-//W3C//DTD SVG 1.1//EN"
 "http://www.w3.org/Graphics/SVG/1.1/DTD/svg11.dtd">
<!-- Generated by graphviz version 2.47.0 (20210316.0004)
 -->
<!-- Title: dependencies Pages: 1 -->
<svg width="1787pt" height="290pt"
 viewBox="0.00 0.00 1787.00 290.00" xmlns="http://www.w3.org/2000/svg" xmlns:xlink="http://www.w3.org/1999/xlink">
<g id="graph0" class="graph" transform="scale(1 1) rotate(0) translate(4 286)">
<title>dependencies</title>
<polygon fill="white" stroke="transparent" points="-4,4 -4,-286 1783,-286 1783,4 -4,4"/>
<text text-anchor="start" x="868.51" y="-42.4" font-family="Times-12" font-weight="bold" font-size="14.00">Legend</text>
<polygon fill="#ffffb3" stroke="transparent" points="655.5,-10 655.5,-30 675.5,-30 675.5,-10 655.5,-10"/>
<text text-anchor="start" x="679.13" y="-15.4" font-family="Times-12" font-size="14.00"> &#160;Declarations</text>
<polygon fill="#8dd3c7" stroke="transparent" points="768.5,-10 768.5,-30 788.5,-30 788.5,-10 768.5,-10"/>
<text text-anchor="start" x="792.23" y="-15.4" font-family="Times-12" font-size="14.00"> &#160;Module</text>
<polygon fill="#80b1d3" stroke="transparent" points="854.5,-10 854.5,-30 874.5,-30 874.5,-10 854.5,-10"/>
<text text-anchor="start" x="878.28" y="-15.4" font-family="Times-12" font-size="14.00"> &#160;Bootstrap</text>
<polygon fill="#fdb462" stroke="transparent" points="951.5,-10 951.5,-30 971.5,-30 971.5,-10 951.5,-10"/>
<text text-anchor="start" x="975.17" y="-15.4" font-family="Times-12" font-size="14.00"> &#160;Providers</text>
<polygon fill="#fb8072" stroke="transparent" points="1047.5,-10 1047.5,-30 1067.5,-30 1067.5,-10 1047.5,-10"/>
<text text-anchor="start" x="1071.23" y="-15.4" font-family="Times-12" font-size="14.00"> &#160;Exports</text>
<g id="clust1" class="cluster">
<title>cluster_AppModule</title>
<polygon fill="none" stroke="black" stroke-dasharray="1,5" points="8,-70 8,-274 1003,-274 1003,-70 8,-70"/>
</g>
<g id="clust2" class="cluster">
<title>cluster_AppModule_declarations</title>
<polygon fill="none" stroke="black" points="16,-78 16,-130 726,-130 726,-78 16,-78"/>
</g>
<g id="clust8" class="cluster">
<title>cluster_AppModule_imports</title>
<polygon fill="none" stroke="black" points="734,-78 734,-130 995,-130 995,-78 734,-78"/>
</g>
<g id="clust10" class="cluster">
<title>cluster_AppModule_bootstrap</title>
<polygon fill="none" stroke="black" points="737,-214 737,-266 861,-266 861,-214 737,-214"/>
</g>
<g id="clust18" class="cluster">
<title>cluster_AppServerModule</title>
<polygon fill="none" stroke="black" stroke-dasharray="1,5" points="1635,-146 1635,-198 1771,-198 1771,-146 1635,-146"/>
</g>
<g id="clust24" class="cluster">
<title>cluster_SharedModule</title>
<polygon fill="none" stroke="black" stroke-dasharray="1,5" points="1011,-138 1011,-206 1627,-206 1627,-138 1011,-138"/>
</g>
<g id="clust25" class="cluster">
<title>cluster_SharedModule_declarations</title>
<polygon fill="none" stroke="black" points="1327,-146 1327,-198 1619,-198 1619,-146 1327,-146"/>
</g>
<g id="clust29" class="cluster">
<title>cluster_SharedModule_exports</title>
<polygon fill="none" stroke="black" points="1019,-146 1019,-198 1319,-198 1319,-146 1019,-146"/>
</g>
<!-- AppComponent -->
<g id="node1" class="node">
<title>AppComponent</title>
<polygon fill="#ffffb3" stroke="black" points="717.94,-122 612.06,-122 612.06,-86 717.94,-86 717.94,-122"/>
<text text-anchor="middle" x="665" y="-99.8" font-family="Times,serif" font-size="14.00">AppComponent</text>
</g>
<!-- AppModule -->
<g id="node6" class="node">
<title>AppModule</title>
<polygon fill="#8dd3c7" stroke="black" points="706.66,-190 703.66,-194 682.66,-194 679.66,-190 623.34,-190 623.34,-154 706.66,-154 706.66,-190"/>
<text text-anchor="middle" x="665" y="-167.8" font-family="Times,serif" font-size="14.00">AppModule</text>
</g>
<!-- AppComponent&#45;&gt;AppModule -->
<g id="edge1" class="edge">
<title>AppComponent&#45;&gt;AppModule</title>
<path fill="none" stroke="black" d="M651.06,-122.22C651.06,-122.22 651.06,-143.73 651.06,-143.73"/>
<polygon fill="black" stroke="black" points="647.56,-143.73 651.06,-153.73 654.56,-143.73 647.56,-143.73"/>
</g>
<!-- BookDetailComponent -->
<g id="node2" class="node">
<title>BookDetailComponent</title>
<polygon fill="#ffffb3" stroke="black" points="593.88,-122 448.12,-122 448.12,-86 593.88,-86 593.88,-122"/>
<text text-anchor="middle" x="521" y="-99.8" font-family="Times,serif" font-size="14.00">BookDetailComponent</text>
</g>
<!-- BookDetailComponent&#45;&gt;AppModule -->
<g id="edge2" class="edge">
<title>BookDetailComponent&#45;&gt;AppModule</title>
<path fill="none" stroke="black" d="M521,-122.03C521,-139.06 521,-162 521,-162 521,-162 612.96,-162 612.96,-162"/>
<polygon fill="black" stroke="black" points="612.96,-165.5 622.96,-162 612.96,-158.5 612.96,-165.5"/>
</g>
<!-- BookFilterPipe -->
<g id="node3" class="node">
<title>BookFilterPipe</title>
<polygon fill="#ffffb3" stroke="black" points="429.55,-122 328.45,-122 328.45,-86 429.55,-86 429.55,-122"/>
<text text-anchor="middle" x="379" y="-99.8" font-family="Times,serif" font-size="14.00">BookFilterPipe</text>
</g>
<!-- BookFilterPipe&#45;&gt;AppModule -->
<g id="edge3" class="edge">
<title>BookFilterPipe&#45;&gt;AppModule</title>
<path fill="none" stroke="black" d="M379,-122.11C379,-141.34 379,-169 379,-169 379,-169 613.11,-169 613.11,-169"/>
<polygon fill="black" stroke="black" points="613.11,-172.5 623.11,-169 613.11,-165.5 613.11,-172.5"/>
</g>
<!-- BookListComponent -->
<g id="node4" class="node">
<title>BookListComponent</title>
<polygon fill="#ffffb3" stroke="black" points="309.95,-122 176.05,-122 176.05,-86 309.95,-86 309.95,-122"/>
<text text-anchor="middle" x="243" y="-99.8" font-family="Times,serif" font-size="14.00">BookListComponent</text>
</g>
<!-- BookListComponent&#45;&gt;AppModule -->
<g id="edge4" class="edge">
<title>BookListComponent&#45;&gt;AppModule</title>
<path fill="none" stroke="black" d="M243,-122.17C243,-143.5 243,-176 243,-176 243,-176 612.99,-176 612.99,-176"/>
<polygon fill="black" stroke="black" points="612.99,-179.5 622.99,-176 612.99,-172.5 612.99,-179.5"/>
</g>
<!-- WelcomeComponent -->
<g id="node5" class="node">
<title>WelcomeComponent</title>
<polygon fill="#ffffb3" stroke="black" points="158.47,-122 23.53,-122 23.53,-86 158.47,-86 158.47,-122"/>
<text text-anchor="middle" x="91" y="-99.8" font-family="Times,serif" font-size="14.00">WelcomeComponent</text>
</g>
<!-- WelcomeComponent&#45;&gt;AppModule -->
<g id="edge5" class="edge">
<title>WelcomeComponent&#45;&gt;AppModule</title>
<path fill="none" stroke="black" d="M91,-122.32C91,-145.66 91,-183 91,-183 91,-183 613.26,-183 613.26,-183"/>
<polygon fill="black" stroke="black" points="613.26,-186.5 623.26,-183 613.26,-179.5 613.26,-186.5"/>
</g>
<!-- AppComponent  -->
<g id="node9" class="node">
<title>AppComponent </title>
<polygon fill="#80b1d3" stroke="black" points="853.44,-258 744.56,-258 744.56,-222 853.44,-222 853.44,-258"/>
<text text-anchor="middle" x="799" y="-235.8" font-family="Times,serif" font-size="14.00">AppComponent </text>
</g>
<!-- AppModule&#45;&gt;AppComponent  -->
<g id="edge8" class="edge">
<title>AppModule&#45;&gt;AppComponent </title>
<path fill="none" stroke="black" stroke-dasharray="1,5" d="M665,-190.22C665,-210.37 665,-240 665,-240 665,-240 734.5,-240 734.5,-240"/>
<polygon fill="black" stroke="black" points="734.5,-243.5 744.5,-240 734.5,-236.5 734.5,-243.5"/>
</g>
<!-- AppServerModule -->
<g id="node10" class="node">
<title>AppServerModule</title>
<polygon fill="#8dd3c7" stroke="black" points="1763.19,-190 1760.19,-194 1739.19,-194 1736.19,-190 1642.81,-190 1642.81,-154 1763.19,-154 1763.19,-190"/>
<text text-anchor="middle" x="1703" y="-167.8" font-family="Times,serif" font-size="14.00">AppServerModule</text>
</g>
<!-- AppModule&#45;&gt;AppServerModule -->
<g id="edge9" class="edge">
<title>AppModule&#45;&gt;AppServerModule</title>
<path fill="none" stroke="black" d="M678.94,-153.81C678.94,-145.72 678.94,-138 678.94,-138 678.94,-138 1703,-138 1703,-138 1703,-138 1703,-143.81 1703,-143.81"/>
<polygon fill="black" stroke="black" points="1699.5,-143.81 1703,-153.81 1706.5,-143.81 1699.5,-143.81"/>
</g>
<!-- AppRoutingModule -->
<g id="node7" class="node">
<title>AppRoutingModule</title>
<polygon fill="#8dd3c7" stroke="black" points="870.27,-122 867.27,-126 846.27,-126 843.27,-122 741.73,-122 741.73,-86 870.27,-86 870.27,-122"/>
<text text-anchor="middle" x="806" y="-99.8" font-family="Times,serif" font-size="14.00">AppRoutingModule</text>
</g>
<!-- AppRoutingModule&#45;&gt;AppModule -->
<g id="edge6" class="edge">
<title>AppRoutingModule&#45;&gt;AppModule</title>
<path fill="none" stroke="black" d="M799,-122.22C799,-142.37 799,-172 799,-172 799,-172 716.66,-172 716.66,-172"/>
<polygon fill="black" stroke="black" points="716.66,-168.5 706.66,-172 716.66,-175.5 716.66,-168.5"/>
</g>
<!-- SharedModule -->
<g id="node8" class="node">
<title>SharedModule</title>
<polygon fill="#8dd3c7" stroke="black" points="987.42,-122 984.42,-126 963.42,-126 960.42,-122 888.58,-122 888.58,-86 987.42,-86 987.42,-122"/>
<text text-anchor="middle" x="938" y="-99.8" font-family="Times,serif" font-size="14.00">SharedModule</text>
</g>
<!-- SharedModule&#45;&gt;AppModule -->
<g id="edge7" class="edge">
<title>SharedModule&#45;&gt;AppModule</title>
<path fill="none" stroke="black" d="M921.6,-122.25C921.6,-145.02 921.6,-181 921.6,-181 921.6,-181 716.8,-181 716.8,-181"/>
<polygon fill="black" stroke="black" points="716.8,-177.5 706.8,-181 716.8,-184.5 716.8,-177.5"/>
</g>
<!-- CalculatorComponent  -->
<g id="node13" class="node">
<title>CalculatorComponent </title>
<polygon fill="#fb8072" stroke="black" points="1310.65,-190 1167.35,-190 1167.35,-154 1310.65,-154 1310.65,-190"/>
<text text-anchor="middle" x="1239" y="-167.8" font-family="Times,serif" font-size="14.00">CalculatorComponent </text>
</g>
<!-- SharedModule&#45;&gt;CalculatorComponent  -->
<g id="edge13" class="edge">
<title>SharedModule&#45;&gt;CalculatorComponent </title>
<path fill="none" stroke="black" stroke-dasharray="5,2" d="M987.37,-113C1072.76,-113 1239,-113 1239,-113 1239,-113 1239,-143.98 1239,-143.98"/>
<polygon fill="black" stroke="black" points="1235.5,-143.98 1239,-153.98 1242.5,-143.98 1235.5,-143.98"/>
</g>
<!-- RatingComponent  -->
<g id="node14" class="node">
<title>RatingComponent </title>
<polygon fill="#fb8072" stroke="black" points="1149.16,-190 1026.84,-190 1026.84,-154 1149.16,-154 1149.16,-190"/>
<text text-anchor="middle" x="1088" y="-167.8" font-family="Times,serif" font-size="14.00">RatingComponent </text>
</g>
<!-- SharedModule&#45;&gt;RatingComponent  -->
<g id="edge14" class="edge">
<title>SharedModule&#45;&gt;RatingComponent </title>
<path fill="none" stroke="black" stroke-dasharray="5,2" d="M954.4,-122.02C954.4,-139.37 954.4,-163 954.4,-163 954.4,-163 1016.68,-163 1016.68,-163"/>
<polygon fill="black" stroke="black" points="1016.68,-166.5 1026.68,-163 1016.68,-159.5 1016.68,-166.5"/>
</g>
<!-- AppServerModule&#45;&gt;AppComponent  -->
<g id="edge10" class="edge">
<title>AppServerModule&#45;&gt;AppComponent </title>
<path fill="none" stroke="black" stroke-dasharray="1,5" d="M1703,-190.22C1703,-210.37 1703,-240 1703,-240 1703,-240 863.51,-240 863.51,-240"/>
<polygon fill="black" stroke="black" points="863.51,-236.5 853.51,-240 863.51,-243.5 863.51,-236.5"/>
</g>
<!-- CalculatorComponent -->
<g id="node11" class="node">
<title>CalculatorComponent</title>
<polygon fill="#ffffb3" stroke="black" points="1610.65,-190 1471.35,-190 1471.35,-154 1610.65,-154 1610.65,-190"/>
<text text-anchor="middle" x="1541" y="-167.8" font-family="Times,serif" font-size="14.00">CalculatorComponent</text>
</g>
<!-- CalculatorComponent&#45;&gt;SharedModule -->
<g id="edge11" class="edge">
<title>CalculatorComponent&#45;&gt;SharedModule</title>
<path fill="none" stroke="black" d="M1541,-153.75C1541,-130.98 1541,-95 1541,-95 1541,-95 997.35,-95 997.35,-95"/>
<polygon fill="black" stroke="black" points="997.35,-91.5 987.35,-95 997.35,-98.5 997.35,-91.5"/>
</g>
<!-- RatingComponent -->
<g id="node12" class="node">
<title>RatingComponent</title>
<polygon fill="#ffffb3" stroke="black" points="1453.17,-190 1334.83,-190 1334.83,-154 1453.17,-154 1453.17,-190"/>
<text text-anchor="middle" x="1394" y="-167.8" font-family="Times,serif" font-size="14.00">RatingComponent</text>
</g>
<!-- RatingComponent&#45;&gt;SharedModule -->
<g id="edge12" class="edge">
<title>RatingComponent&#45;&gt;SharedModule</title>
<path fill="none" stroke="black" d="M1394,-153.78C1394,-133.63 1394,-104 1394,-104 1394,-104 997.23,-104 997.23,-104"/>
<polygon fill="black" stroke="black" points="997.23,-100.5 987.23,-104 997.23,-107.5 997.23,-100.5"/>
</g>
</g>
</svg>
