<?xml version="1.0" encoding="UTF-8" standalone="no"?>
<!DOCTYPE svg PUBLIC "-//W3C//DTD SVG 1.1//EN"
 "http://www.w3.org/Graphics/SVG/1.1/DTD/svg11.dtd">
<!-- Generated by graphviz version 2.47.0 (20210316.0004)
 -->
<!-- Title: dependencies Pages: 1 -->
<svg width="504pt" height="284pt"
 viewBox="0.00 0.00 504.00 284.00" xmlns="http://www.w3.org/2000/svg" xmlns:xlink="http://www.w3.org/1999/xlink">
<g id="graph0" class="graph" transform="scale(1 1) rotate(0) translate(4 280)">
<title>dependencies</title>
<polygon fill="white" stroke="transparent" points="-4,4 -4,-280 500,-280 500,4 -4,4"/>
<text text-anchor="start" x="227.01" y="-42.4" font-family="Times-12" font-weight="bold" font-size="14.00">Legend</text>
<polygon fill="#ffffb3" stroke="transparent" points="14,-10 14,-30 34,-30 34,-10 14,-10"/>
<text text-anchor="start" x="37.63" y="-15.4" font-family="Times-12" font-size="14.00"> &#160;Declarations</text>
<polygon fill="#8dd3c7" stroke="transparent" points="127,-10 127,-30 147,-30 147,-10 127,-10"/>
<text text-anchor="start" x="150.73" y="-15.4" font-family="Times-12" font-size="14.00"> &#160;Module</text>
<polygon fill="#80b1d3" stroke="transparent" points="213,-10 213,-30 233,-30 233,-10 213,-10"/>
<text text-anchor="start" x="236.78" y="-15.4" font-family="Times-12" font-size="14.00"> &#160;Bootstrap</text>
<polygon fill="#fdb462" stroke="transparent" points="310,-10 310,-30 330,-30 330,-10 310,-10"/>
<text text-anchor="start" x="333.67" y="-15.4" font-family="Times-12" font-size="14.00"> &#160;Providers</text>
<polygon fill="#fb8072" stroke="transparent" points="406,-10 406,-30 426,-30 426,-10 406,-10"/>
<text text-anchor="start" x="429.73" y="-15.4" font-family="Times-12" font-size="14.00"> &#160;Exports</text>
<g id="clust1" class="cluster">
<title>cluster_SharedModule</title>
<polygon fill="none" stroke="black" stroke-dasharray="1,5" points="90,-70 90,-268 406,-268 406,-70 90,-70"/>
</g>
<g id="clust2" class="cluster">
<title>cluster_SharedModule_declarations</title>
<polygon fill="none" stroke="black" points="102,-78 102,-130 394,-130 394,-78 102,-78"/>
</g>
<g id="clust6" class="cluster">
<title>cluster_SharedModule_exports</title>
<polygon fill="none" stroke="black" points="98,-208 98,-260 398,-260 398,-208 98,-208"/>
</g>
<!-- CalculatorComponent -->
<g id="node1" class="node">
<title>CalculatorComponent</title>
<polygon fill="#ffffb3" stroke="black" points="385.65,-122 246.35,-122 246.35,-86 385.65,-86 385.65,-122"/>
<text text-anchor="middle" x="316" y="-99.8" font-family="Times,serif" font-size="14.00">CalculatorComponent</text>
</g>
<!-- SharedModule -->
<g id="node3" class="node">
<title>SharedModule</title>
<polygon fill="#8dd3c7" stroke="black" points="219.42,-187 216.42,-191 195.42,-191 192.42,-187 120.58,-187 120.58,-151 219.42,-151 219.42,-187"/>
<text text-anchor="middle" x="170" y="-164.8" font-family="Times,serif" font-size="14.00">SharedModule</text>
</g>
<!-- CalculatorComponent&#45;&gt;SharedModule -->
<g id="edge1" class="edge">
<title>CalculatorComponent&#45;&gt;SharedModule</title>
<path fill="none" stroke="black" d="M339.36,-122.02C339.36,-139.37 339.36,-163 339.36,-163 339.36,-163 229.44,-163 229.44,-163"/>
<polygon fill="black" stroke="black" points="229.44,-159.5 219.44,-163 229.44,-166.5 229.44,-159.5"/>
</g>
<!-- RatingComponent -->
<g id="node2" class="node">
<title>RatingComponent</title>
<polygon fill="#ffffb3" stroke="black" points="228.17,-122 109.83,-122 109.83,-86 228.17,-86 228.17,-122"/>
<text text-anchor="middle" x="169" y="-99.8" font-family="Times,serif" font-size="14.00">RatingComponent</text>
</g>
<!-- RatingComponent&#45;&gt;SharedModule -->
<g id="edge2" class="edge">
<title>RatingComponent&#45;&gt;SharedModule</title>
<path fill="none" stroke="black" d="M170,-122.11C170,-122.11 170,-140.99 170,-140.99"/>
<polygon fill="black" stroke="black" points="166.5,-140.99 170,-150.99 173.5,-140.99 166.5,-140.99"/>
</g>
<!-- CalculatorComponent  -->
<g id="node4" class="node">
<title>CalculatorComponent </title>
<polygon fill="#fb8072" stroke="black" points="389.65,-252 246.35,-252 246.35,-216 389.65,-216 389.65,-252"/>
<text text-anchor="middle" x="318" y="-229.8" font-family="Times,serif" font-size="14.00">CalculatorComponent </text>
</g>
<!-- SharedModule&#45;&gt;CalculatorComponent  -->
<g id="edge3" class="edge">
<title>SharedModule&#45;&gt;CalculatorComponent </title>
<path fill="none" stroke="black" stroke-dasharray="5,2" d="M219.28,-175C253.47,-175 292.89,-175 292.89,-175 292.89,-175 292.89,-205.98 292.89,-205.98"/>
<polygon fill="black" stroke="black" points="289.39,-205.98 292.89,-215.98 296.39,-205.98 289.39,-205.98"/>
</g>
<!-- RatingComponent  -->
<g id="node5" class="node">
<title>RatingComponent </title>
<polygon fill="#fb8072" stroke="black" points="228.16,-252 105.84,-252 105.84,-216 228.16,-216 228.16,-252"/>
<text text-anchor="middle" x="167" y="-229.8" font-family="Times,serif" font-size="14.00">RatingComponent </text>
</g>
<!-- SharedModule&#45;&gt;RatingComponent  -->
<g id="edge4" class="edge">
<title>SharedModule&#45;&gt;RatingComponent </title>
<path fill="none" stroke="black" stroke-dasharray="5,2" d="M170,-187.11C170,-187.11 170,-205.99 170,-205.99"/>
<polygon fill="black" stroke="black" points="166.5,-205.99 170,-215.99 173.5,-205.99 166.5,-205.99"/>
</g>
</g>
</svg>
